<svg width="193" height="34" viewBox="0 0 193 34" fill="none" xmlns="http://www.w3.org/2000/svg">
<path fill-rule="evenodd" clip-rule="evenodd" d="M56.1774 7.17259C56.251 7.16797 56.3293 7.16306 56.4144 7.1587C56.4134 6.50128 56.414 5.8522 56.4147 5.20688C56.4158 4.02079 56.417 2.84745 56.4077 1.65852C56.3394 1.65315 56.2772 1.64719 56.2192 1.64162C56.1029 1.63047 56.0032 1.62091 55.9035 1.62091C52.3777 1.62002 48.8514 1.62002 45.3256 1.62405C45.2964 1.62408 45.2672 1.62403 45.238 1.62397C44.863 1.62328 44.4865 1.62258 44.1317 1.8049C44.0474 1.84826 43.9423 1.8517 43.8427 1.85496C43.8292 1.8554 43.8158 1.85584 43.8025 1.85637C43.5104 1.86846 43.2337 1.89666 42.955 2.0408C42.8134 2.11406 42.6584 2.15361 42.5011 2.19374C42.3759 2.2257 42.2492 2.25803 42.1267 2.30805C41.5986 2.52381 41.102 2.7915 40.636 3.12007C40.0164 3.55697 39.4812 4.09996 39.0324 4.73338C38.6785 5.23339 38.3796 5.76117 38.1404 6.34444C37.862 7.02307 37.7118 7.7102 37.6694 8.43852C37.6655 8.50647 37.6481 8.57347 37.6308 8.64056C37.6145 8.70341 37.5982 8.76634 37.593 8.83021C37.5889 8.87968 37.5844 8.92927 37.5799 8.97894C37.559 9.21015 37.538 9.44286 37.556 9.67132C37.5888 10.0845 37.6291 10.5053 37.7353 10.9015C37.7683 11.0243 37.7992 11.1476 37.8302 11.271C37.9157 11.6122 38.0015 11.954 38.1315 12.2874C38.3389 12.8178 38.5707 13.3308 38.8712 13.7946C39.4245 14.6482 40.1155 15.3568 40.9857 15.8578C41.2941 16.0355 41.5945 16.229 41.8949 16.4224C42.1793 16.6056 42.4636 16.7887 42.7547 16.9585C42.9827 17.0915 43.2237 17.1994 43.4648 17.3073C43.6019 17.3687 43.7391 17.4301 43.8739 17.4961C44.2211 17.6662 44.5653 17.8435 44.9083 18.0226C45.0274 18.0847 45.1453 18.15 45.2632 18.2152C45.4008 18.2913 45.5385 18.3675 45.6782 18.4389L45.7354 18.4681C46.1701 18.6903 46.6051 18.9126 47.0463 19.1193C47.2513 19.2152 47.4597 19.3028 47.6681 19.3903C47.8681 19.4743 48.068 19.5583 48.265 19.6497C48.5062 19.7615 48.7443 19.8812 48.9824 20.0009C49.1524 20.0864 49.3225 20.1719 49.4937 20.2545C49.6061 20.3087 49.7204 20.359 49.8346 20.4092C49.9749 20.471 50.1152 20.5328 50.2523 20.6019C50.4124 20.6825 50.5705 20.7682 50.7285 20.8538C50.98 20.9901 51.2313 21.1263 51.4907 21.242C52.0738 21.5021 52.4684 21.982 52.8588 22.4753C53.0573 22.7259 53.2164 22.9941 53.2341 23.3383C53.2379 23.4143 53.2606 23.4892 53.2833 23.5643C53.2952 23.6038 53.3071 23.6432 53.3164 23.683C53.3218 23.7065 53.3286 23.7303 53.3355 23.7542C53.3538 23.8175 53.3722 23.8816 53.3646 23.9417C53.2383 24.9512 52.9238 25.8581 52.0461 26.3997L52.0282 26.4108C51.7163 26.6031 51.3905 26.804 51.002 26.7838C50.9605 26.7816 50.9155 26.7834 50.8773 26.7986C50.2195 27.0604 49.5421 27.0366 48.8657 27.0128C48.6215 27.0042 48.3774 26.9956 48.1344 27.0005C47.5616 27.012 46.9885 27.0015 46.4154 26.9909C46.0095 26.9834 45.6035 26.9759 45.1975 26.9763C44.3932 26.977 43.589 26.9827 42.7848 26.9884C41.9805 26.9941 41.1763 26.9998 40.372 27.0005C39.3091 27.0014 38.2453 26.996 37.1828 26.9624C36.951 26.9551 36.7175 26.8595 36.4931 26.7676C36.4701 26.7582 36.4471 26.7488 36.4242 26.7395C36.3327 26.7024 36.2475 26.5837 36.2059 26.4808C35.9734 25.902 36.3189 25.2784 36.907 25.2032C36.9882 25.1927 37.0707 25.1942 37.1533 25.1958C37.183 25.1964 37.2128 25.1969 37.2424 25.1969C38.6168 25.1959 39.9912 25.1949 41.3655 25.194C44.1188 25.1921 46.8721 25.1902 49.6255 25.1875C49.727 25.1875 49.829 25.1814 49.9308 25.1752C50.1099 25.1643 50.2886 25.1535 50.4639 25.1763C50.8186 25.2224 51.1024 25.0304 51.3446 24.8491C51.5305 24.7099 51.7111 24.4409 51.7048 24.1347C51.7038 24.0859 51.705 24.0372 51.7061 23.9888C51.7115 23.7688 51.7167 23.5547 51.5171 23.358C51.2556 23.1006 51.0037 22.8696 50.6855 22.6758C50.3776 22.4882 50.0549 22.3382 49.7326 22.1882C49.4687 22.0655 49.2049 21.9428 48.9496 21.7998C48.7049 21.6625 48.4423 21.5621 48.1794 21.4616C48.0058 21.3953 47.8322 21.3289 47.6634 21.2519C47.4361 21.1482 47.2137 21.0324 46.9914 20.9166C46.8336 20.8344 46.6757 20.7523 46.5161 20.6744C46.3154 20.5764 46.113 20.4822 45.9106 20.3879C45.6767 20.279 45.4428 20.17 45.2114 20.0553C44.915 19.9087 44.6225 19.7533 44.3299 19.598C44.2313 19.5456 44.1326 19.4932 44.0339 19.4411C43.9097 19.376 43.7862 19.3098 43.6626 19.2436C43.4577 19.1339 43.2528 19.0242 43.0457 18.9192C42.8999 18.8453 42.7523 18.7753 42.6047 18.7053C42.3785 18.5981 42.1523 18.4908 41.9328 18.3695C41.4013 18.0754 40.8745 17.7696 40.359 17.4451C39.4648 16.8815 38.6403 16.2203 37.988 15.3461C37.6299 14.8667 37.3423 14.3398 37.0598 13.8035C36.8243 13.3554 36.6203 12.8863 36.4889 12.414C36.4552 12.293 36.4129 12.173 36.3702 12.0521C36.2625 11.7468 36.1529 11.4363 36.177 11.0908C36.1863 10.9585 36.1498 10.8229 36.1132 10.6869C36.0951 10.6199 36.0771 10.5528 36.0645 10.486C36.0592 10.4585 36.0536 10.4308 36.048 10.4031C36.027 10.3 36.0059 10.1963 36.0036 10.0926C36.0026 10.0428 36.0015 9.9931 36.0004 9.94336C35.9918 9.54538 35.9832 9.14725 36.0011 8.75053C36.009 8.58043 36.0436 8.41203 36.0784 8.24337C36.0971 8.15237 36.1158 8.0613 36.1304 7.96984C36.1539 7.82301 36.1732 7.67484 36.182 7.52667L36.1827 7.51531C36.1996 7.23881 36.2157 6.97603 36.3487 6.71151C36.4207 6.56808 36.4545 6.40763 36.489 6.24398C36.518 6.10628 36.5474 5.96632 36.6006 5.83234C36.9171 5.03464 37.2932 4.28036 37.81 3.61427C38.3305 2.94325 38.9229 2.34431 39.5861 1.83578C40.055 1.47633 40.547 1.15134 41.0928 0.927963C41.2296 0.871847 41.3629 0.805985 41.4962 0.740144C41.6499 0.664174 41.8036 0.588233 41.9626 0.527322C42.2346 0.423021 42.518 0.338865 42.8026 0.286938C42.9354 0.262627 43.0685 0.235925 43.2016 0.209192C43.6448 0.120248 44.0897 0.0309553 44.5338 0.0282017C47.7835 0.00671478 51.0332 0.00454591 54.283 0.00237703C55.2308 0.00174445 56.1786 0.00111187 57.1264 0C57.2385 0 57.351 0.000447971 57.4618 0.0143249C57.6973 0.0434217 57.898 0.23725 57.9341 0.491959C57.9652 0.712647 57.9815 0.937364 57.9819 1.16029C57.9857 3.39851 57.9849 5.63628 57.9841 7.87449C57.9841 8.00834 57.9799 8.14397 57.9614 8.27602C57.9148 8.60997 57.7364 8.80379 57.4161 8.84498C57.2087 8.87184 56.9971 8.87184 56.7876 8.87184C54.505 8.87156 52.2221 8.8704 49.9393 8.86925C48.5701 8.86856 47.2009 8.86786 45.8318 8.86736C45.4423 8.86691 45.0649 8.88706 44.6795 9.0209C44.308 9.15027 44.169 9.44258 44.096 9.75548C44.0322 10.029 44.1976 10.3213 44.4146 10.4784C44.6536 10.6518 44.9178 10.7864 45.1812 10.9206C45.2524 10.9568 45.3235 10.993 45.394 11.0299C45.5472 11.1101 45.705 11.1801 45.8628 11.2501C45.919 11.2751 45.9752 11.3 46.0312 11.3254C46.1446 11.3769 46.2583 11.4278 46.3719 11.4787C46.585 11.5742 46.798 11.6697 47.0094 11.769C47.0815 11.8027 47.1512 11.8425 47.221 11.8823C47.2956 11.9249 47.3703 11.9675 47.448 12.0027C47.7262 12.1286 48.0052 12.2523 48.2842 12.3761C48.7113 12.5656 49.1383 12.755 49.5621 12.9521C49.9203 13.1187 50.2748 13.2935 50.6293 13.4683C50.894 13.5988 51.1587 13.7293 51.4248 13.8563C51.9336 14.0994 52.4436 14.3407 52.9595 14.5654C53.1339 14.6414 53.3128 14.7071 53.4915 14.7727C53.7665 14.8738 54.0413 14.9748 54.2991 15.1129L54.3041 15.1155C55.1974 15.5945 56.0976 16.0772 56.8208 16.8376C57.3296 17.3726 57.8317 17.9174 58.3006 18.4917C58.4741 18.7044 58.604 18.9589 58.7333 19.2123C58.7752 19.2942 58.817 19.3761 58.8602 19.4564C58.8944 19.5201 58.9291 19.5837 58.9639 19.6474C59.1154 19.9249 59.2675 20.2035 59.3815 20.498C59.5314 20.8857 59.6544 21.2863 59.7661 21.6932C60.0591 22.7619 60.0116 23.8383 59.9639 24.9163C59.9566 25.0815 59.9493 25.2466 59.9432 25.4118C59.937 25.5775 59.8958 25.7419 59.8546 25.9061C59.835 25.9841 59.8155 26.062 59.7997 26.1401C59.7944 26.1662 59.7885 26.1922 59.7827 26.2183C59.7657 26.2941 59.7486 26.3701 59.7455 26.4463C59.7359 26.6719 59.6935 26.8698 59.5793 27.0766C59.492 27.2343 59.4415 27.4145 59.3909 27.5952C59.3623 27.6972 59.3337 27.7993 59.2984 27.8976C59.0873 28.4871 58.7674 29.0077 58.429 29.5247C58.0336 30.1291 57.5924 30.6801 57.0555 31.1367C56.7027 31.4367 56.3291 31.7088 55.9561 31.9805C55.9122 32.0124 55.8684 32.0443 55.8246 32.0763C55.5438 32.2813 55.2571 32.4801 54.9582 32.6529C54.7616 32.7666 54.5533 32.8569 54.3453 32.9471C54.2862 32.9727 54.2272 32.9983 54.1685 33.0244C53.8952 33.1462 53.6199 33.2624 53.3446 33.3786L53.2928 33.4004C53.2169 33.4322 53.1392 33.4604 53.0603 33.4828C53.0426 33.4878 53.0226 33.4867 53.0029 33.4856C52.9786 33.4843 52.9548 33.483 52.936 33.4931C52.6742 33.6353 52.3901 33.679 52.1057 33.7227C51.8717 33.7587 51.6376 33.7948 51.4155 33.8857C51.2644 33.9479 51.0872 33.9537 50.9214 33.9569L50.7794 33.9595C49.8335 33.977 48.8876 33.9945 47.9417 33.9958C45.2119 33.9996 42.4824 33.9991 39.7527 33.9987C38.9004 33.9986 38.0481 33.9985 37.1958 33.9985C37.1687 33.9985 37.1416 33.9986 37.1144 33.9987C36.9876 33.9993 36.8603 33.9999 36.7345 33.9877C36.3944 33.9546 36.2097 33.7684 36.161 33.4076C36.114 33.0616 36.0989 32.7173 36.4289 32.4998C36.5292 32.434 36.6455 32.37 36.7592 32.357C36.9086 32.3402 37.0602 32.3432 37.2117 32.3462C37.2706 32.3473 37.3294 32.3485 37.3881 32.3485L37.4271 32.3485C41.4853 32.3471 45.5438 32.3458 49.6024 32.3436C49.8549 32.3436 50.1073 32.3359 50.3597 32.3282L50.3996 32.327C50.4235 32.3262 50.4481 32.3266 50.473 32.327C50.55 32.3283 50.6287 32.3296 50.6897 32.2961C50.9095 32.1757 51.1451 32.1501 51.3791 32.1248C51.5166 32.1099 51.6534 32.095 51.7862 32.0611C51.8623 32.0416 51.94 32.0249 52.0183 32.008C52.3001 31.9472 52.5885 31.885 52.829 31.6909C52.8504 31.673 52.8756 31.6555 52.9016 31.6493C53.7349 31.4451 54.4359 30.9711 55.1471 30.484C55.9417 29.9397 56.571 29.2342 57.1482 28.4665C57.427 28.0954 57.6549 27.6755 57.788 27.2073C57.8111 27.1257 57.8504 27.0494 57.8896 26.9731C57.9287 26.8971 57.9677 26.8211 57.9908 26.74C58.0958 26.371 58.1916 25.9988 58.2874 25.6265C58.3191 25.5033 58.3508 25.38 58.3829 25.2569L58.3858 25.2453C58.3959 25.2059 58.4064 25.1652 58.4064 25.1253C58.4066 24.8892 58.4154 24.6515 58.4242 24.4138C58.4449 23.8559 58.4655 23.2979 58.3757 22.7609C58.2737 22.1498 58.0932 21.5307 57.8359 20.9349C57.3833 19.887 56.723 19.0427 55.9577 18.2661C55.5232 17.8251 55.0388 17.4581 54.5002 17.1698C54.3384 17.0831 54.1808 16.9868 54.0232 16.8904C53.8162 16.7638 53.6092 16.6373 53.3928 16.5328C53.1482 16.4147 52.8949 16.3168 52.6415 16.2189C52.4561 16.1473 52.2706 16.0757 52.0885 15.9961C51.8266 15.8814 51.5685 15.7575 51.3104 15.6335C51.1452 15.5542 50.9801 15.4749 50.814 15.398C50.6063 15.3019 50.3979 15.2077 50.1895 15.1136C49.9474 15.0042 49.7054 14.8948 49.4647 14.7825C49.1933 14.6559 48.9236 14.5254 48.6539 14.3949C48.5032 14.322 48.3525 14.2491 48.2016 14.1769C48.1734 14.1634 48.1453 14.15 48.1171 14.1366C47.9443 14.054 47.7713 13.9715 47.5962 13.8948C47.404 13.8105 47.2097 13.7306 47.0154 13.6506C46.6095 13.4835 46.2036 13.3165 45.8163 13.1097C45.5553 12.9702 45.2862 12.8485 45.0171 12.7268C44.5166 12.5003 44.016 12.2739 43.5675 11.9333C43.1653 11.628 42.8845 11.2385 42.6914 10.7506C42.5654 10.4319 42.4512 10.1293 42.4852 9.77697C42.5738 8.85438 42.8975 8.08443 43.7043 7.62963C44.1837 7.3597 44.6816 7.1878 45.2403 7.18959C48.1417 7.1981 51.0431 7.195 53.9445 7.19189C54.5551 7.19124 55.1657 7.19059 55.7764 7.19004C55.9038 7.18975 56.0315 7.18174 56.1774 7.17259Z" fill="#005292"/>
<path d="M2.01872 32.3478C3.90528 32.3474 5.74566 32.3693 7.55036 32.3313C7.72709 31.9109 7.88031 31.5528 8.02766 31.1916C8.12044 30.9637 8.20733 30.7332 8.29045 30.5013C8.54107 29.8048 8.77658 29.1015 9.04021 28.4108C9.29838 27.7349 9.58846 27.0728 9.85335 26.3995C9.92765 26.2106 9.94319 26.0061 10.1195 25.8624C10.2929 25.7209 10.4566 25.6354 10.685 25.6363C13.3435 25.6457 16.0021 25.6444 18.6606 25.6444C22.4107 25.6448 26.1607 25.6493 29.9103 25.6377C30.3662 25.6363 30.6873 25.7934 30.867 26.2429C30.985 26.5379 31.0954 26.836 31.2083 27.1332C31.4039 27.6485 31.5987 28.1642 31.7943 28.6794C31.9681 29.1373 32.1419 29.5948 32.3174 30.0523C32.4408 30.3742 32.5668 30.6947 32.6914 31.0161C32.7804 31.2448 32.8913 31.4669 32.9546 31.7032C33.068 32.1267 33.2317 32.5202 33.4223 32.9119C33.615 33.3076 33.2464 33.9267 32.8274 33.9764C32.6474 33.9978 32.4643 33.9952 32.2826 33.9956C30.0157 33.996 27.7492 33.9956 25.4823 33.9943C25.3564 33.9943 25.2304 33.9813 25.1049 33.9866C24.8228 33.9983 24.6519 33.7955 24.5579 33.5757C24.3656 33.1281 24.2326 32.6522 24.0634 32.1929C23.9488 31.8823 23.8094 31.5824 23.6898 31.2735C23.5848 31.0027 23.4975 30.7238 23.3921 30.453C23.2565 30.1038 23.1029 29.7622 22.9723 29.4108C22.8766 29.153 22.8166 28.8799 22.7196 28.623C22.5824 28.2595 22.4749 27.8848 22.2814 27.5419C22.1743 27.353 22.0555 27.3042 21.8775 27.3042C21.5698 27.3047 21.2617 27.298 20.954 27.298C17.8895 27.2989 14.8254 27.3002 11.7609 27.3024C11.5401 27.3024 11.3071 27.2684 11.1451 27.4887C11.0875 27.5665 11.0242 27.6449 10.9881 27.7344C10.7744 28.2689 10.5649 28.8052 10.3609 29.3437C10.2635 29.6002 10.1875 29.8656 10.0914 30.1226C9.88274 30.6786 9.65814 31.2283 9.45664 31.7874C9.27445 32.2914 9.10653 32.8013 8.94659 33.3138C8.83996 33.6554 8.49573 33.9665 8.15696 33.9907C8.08727 33.9956 8.01717 33.996 7.94706 33.996C5.55465 33.9871 3.16224 33.9799 0.769834 33.9643C0.585544 33.9629 0.389922 34.0059 0.228721 33.8143C-0.0109816 33.5292 -0.0743717 32.988 0.0964847 32.6119C0.245512 32.2843 0.363053 31.9405 0.49151 31.6029C0.563295 31.414 0.625006 31.2207 0.699729 31.0331C0.896613 30.5376 1.10861 30.0487 1.29458 29.5487C1.49188 29.0187 1.66022 28.4766 1.85291 27.9444C1.94652 27.6861 2.06952 27.4399 2.17321 27.1856C2.27648 26.9322 2.37429 26.6766 2.47168 26.4206C2.69375 25.8373 2.92128 25.2567 3.13286 24.669C3.30959 24.1779 3.45358 23.6729 3.63577 23.1846C3.81796 22.6953 4.03794 22.2226 4.226 21.7356C4.40232 21.2781 4.55344 20.8094 4.72556 20.3501C4.85192 20.0117 4.99927 19.6818 5.1273 19.3442C5.29732 18.8966 5.45516 18.444 5.6235 17.9959C5.8166 17.482 6.01895 16.9722 6.21079 16.4578C6.32792 16.144 6.4337 15.8253 6.54495 15.5088C6.64108 15.2344 6.73218 14.9582 6.83503 14.6865C7.03947 14.1458 7.24685 13.6059 7.45968 13.0687C7.65615 12.5723 7.86436 12.0812 8.06209 11.5852C8.14311 11.3825 8.21027 11.1734 8.28374 10.9671C8.53141 10.2723 8.76776 9.57219 9.02971 8.88372C9.29208 8.1939 9.5893 7.51885 9.85293 6.82948C10.0347 6.35498 10.1791 5.86437 10.3529 5.38628C10.4616 5.08726 10.5985 4.79987 10.7135 4.50308C10.8189 4.23181 10.907 3.95248 11.0111 3.68076C11.2181 3.14225 11.4372 2.6091 11.6383 2.0679C11.75 1.76754 11.818 1.44837 11.9385 1.15292C12.0745 0.820771 12.2365 0.498915 12.4112 0.187355C12.4586 0.102751 12.587 0.0454527 12.687 0.0253088C12.8364 -0.00468332 12.9934 0.00561237 13.1475 0.00561237C15.5403 0.00516472 17.9327 0.00471795 20.3255 0.00650853C20.907 0.00695617 21.1576 0.237044 21.3087 0.850315C21.3738 1.11442 21.4859 1.366 21.5803 1.62161C21.8011 2.22055 22.0165 2.82218 22.2486 3.41621C22.4329 3.88757 22.6516 4.34417 22.833 4.81733C23.0143 5.29049 23.1617 5.77797 23.3355 6.25426C23.5093 6.73056 23.699 7.20013 23.8787 7.67374C24.0021 7.99917 24.1146 8.32954 24.2422 8.65363C24.4324 9.13708 24.636 9.61427 24.8245 10.0986C24.9391 10.3932 25.0314 10.698 25.1427 10.9944C25.2644 11.3193 25.403 11.6376 25.5222 11.9635C25.6309 12.2603 25.7203 12.5651 25.824 12.8642C25.8954 13.0696 25.9743 13.2729 26.0553 13.4743C26.2522 13.9658 26.4596 14.4528 26.6476 14.9479C26.7606 15.2461 26.829 15.5634 26.9453 15.8602C27.1346 16.3428 27.3571 16.8101 27.5448 17.2931C27.6657 17.6034 27.7232 17.9431 27.8579 18.2448C27.9738 18.504 28.0653 18.7516 28.054 19.0439C28.0359 19.509 27.792 19.7941 27.36 19.8228C27.2622 19.8295 27.164 19.8268 27.0662 19.8268C23.2465 19.8259 19.4263 19.825 15.6066 19.8237C14.9068 19.8232 14.2066 19.7986 13.5081 19.8281C13.0438 19.8478 12.8393 19.5385 12.6513 19.1862C12.6097 19.1079 12.6156 18.979 12.6408 18.8859C12.7021 18.6602 12.7776 18.4378 12.8654 18.222C13.056 17.7533 13.273 17.2967 13.4501 16.8222C13.6374 16.32 13.7877 15.8025 13.9598 15.294C14.029 15.0903 14.1122 14.8915 14.1919 14.6923C14.3913 14.1955 14.6 13.7026 14.7906 13.2017C14.9711 12.7272 15.1285 12.2433 15.3044 11.767C15.5302 11.1555 15.7485 10.5396 16.005 9.9424C16.0835 9.75931 16.2346 9.59681 16.4853 9.5807C17.1204 9.53951 17.2955 9.66799 17.5184 10.3193C17.6959 10.8381 17.9252 11.3368 18.1162 11.8511C18.2971 12.3391 18.4512 12.8382 18.63 13.3275C18.7996 13.7921 18.9868 14.2492 19.1631 14.7111C19.2866 15.0348 19.4007 15.3629 19.5271 15.6852C19.6379 15.9686 19.7639 16.2448 19.8764 16.5272C19.983 16.7954 20.0825 17.0666 20.1828 17.3375C20.284 17.6101 20.3822 17.8836 20.4855 18.1656C20.6622 18.1781 20.8142 18.1974 20.9666 18.1978C22.4636 18.1992 23.961 18.1969 25.4579 18.1956C25.5281 18.1956 25.5982 18.1956 25.6678 18.1911C26.0473 18.166 26.083 18.0792 25.9306 17.6898C25.8039 17.3666 25.7115 17.0281 25.6003 16.6982C25.5306 16.4923 25.4563 16.2882 25.3794 16.085C25.154 15.4878 24.9244 14.8924 24.6998 14.2948C24.4807 13.712 24.2662 13.1274 24.0479 12.5441C23.8145 11.921 23.5789 11.2992 23.3443 10.677C23.1256 10.0964 22.9073 9.5149 22.6886 8.9343C22.4589 8.32506 22.236 7.71313 21.9972 7.10792C21.7373 6.44854 21.4514 5.8008 21.1975 5.13874C21.0056 4.63827 20.8532 4.12035 20.6689 3.6163C20.5648 3.33115 20.4242 3.06167 20.315 2.77831C20.2004 2.48063 20.0938 2.17847 20.0036 1.87184C19.9528 1.69949 19.8545 1.63056 19.7009 1.61981C19.6173 1.61399 19.533 1.61086 19.4494 1.61086C17.5885 1.61041 15.7275 1.60996 13.8666 1.61131C13.7558 1.61131 13.6449 1.62563 13.4762 1.63772C13.3922 1.86691 13.3032 2.10909 13.2146 2.35126C13.1303 2.5818 13.0518 2.81502 12.9594 3.04198C12.7634 3.52409 12.5447 3.99635 12.3641 4.48473C12.179 4.98475 12.0333 5.50088 11.8612 6.00672C11.7827 6.2377 11.6807 6.45973 11.5921 6.68669C11.4607 7.02421 11.3323 7.36307 11.2009 7.7006C11.0242 8.15495 10.8432 8.60752 10.6694 9.06322C10.541 9.4003 10.4213 9.7414 10.2967 10.0798C10.1963 10.3524 10.0935 10.6242 9.99356 10.8972C9.8651 11.2491 9.74084 11.6027 9.61029 11.9541C9.53011 12.1703 9.44363 12.3838 9.35715 12.5969C9.16195 13.0777 8.95247 13.5522 8.77238 14.0392C8.58683 14.5406 8.43276 15.0545 8.25897 15.5608C8.18383 15.7797 8.09315 15.9923 8.01045 16.2085C7.72079 16.9673 7.43575 17.7278 7.1419 18.4843C6.86903 19.1867 6.57853 19.8814 6.3107 20.586C6.12515 21.073 5.97025 21.5735 5.79058 22.0632C5.69067 22.3349 5.56431 22.5955 5.45684 22.8645C5.36071 23.1053 5.27213 23.3502 5.18439 23.5946C4.93965 24.2768 4.70709 24.9648 4.45017 25.6421C4.19284 26.3203 3.9099 26.9869 3.64291 27.6606C3.54761 27.9009 3.49262 28.1525 3.37844 28.3933C3.16938 28.8343 3.05562 29.3253 2.88266 29.7873C2.69543 30.2873 2.44859 30.7654 2.29873 31.2766C2.20385 31.6029 1.95617 31.8903 2.01872 32.3478ZM31.4228 32.274C31.2725 31.8724 31.1567 31.5586 31.0374 31.2462C30.9657 31.0582 30.8809 30.876 30.8162 30.6853C30.7087 30.3692 30.6231 30.0443 30.5093 29.7309C30.3074 29.1736 30.1093 28.6131 29.8742 28.071C29.7239 27.7246 29.6265 27.3024 29.1232 27.306C27.5431 27.3181 25.9625 27.3056 24.3824 27.3127C24.0441 27.3141 23.9551 27.511 24.0898 27.8463C24.2939 28.354 24.4823 28.8683 24.6813 29.3782C24.7493 29.5518 24.8346 29.7179 24.9017 29.8921C25.0314 30.2282 25.1574 30.5662 25.2783 30.906C25.3899 31.2198 25.502 31.5345 25.5965 31.8545C25.6893 32.1692 25.8769 32.3447 26.1926 32.3451C27.7727 32.3469 29.3532 32.346 30.9333 32.3407C31.0794 32.3407 31.2255 32.3022 31.4228 32.274ZM14.6365 18.0564C15.0185 18.235 18.1628 18.2569 18.6346 18.1038C18.6271 17.9543 18.6535 17.7815 18.604 17.6383C18.4629 17.2287 18.2828 16.837 18.1548 16.418C18.0037 15.9225 17.7598 15.4591 17.5646 14.9779C17.4726 14.751 17.3971 14.5164 17.3186 14.2836C17.2258 14.0079 17.1515 13.7236 17.0444 13.4546C16.968 13.2626 16.8505 13.0889 16.7292 12.8664C16.6015 13.0387 16.4722 13.1596 16.4072 13.3118C16.2372 13.7093 16.0877 14.1176 15.9433 14.5267C15.7699 15.0196 15.6238 15.5241 15.4417 16.0129C15.1889 16.6902 14.9131 17.3576 14.6365 18.0564Z" fill="#005292"/>
<path d="M56.4145 7.15781C56.4111 5.29203 56.4221 3.49341 56.4074 1.65852C56.2021 1.64285 56.0526 1.62092 55.9032 1.62092C52.3773 1.62002 48.8511 1.62002 45.3252 1.62405C44.9209 1.6245 44.5137 1.60838 44.1313 1.8049C44.036 1.85414 43.913 1.85145 43.8022 1.85638C43.51 1.86846 43.233 1.89666 42.9546 2.04081C42.7007 2.17241 42.4026 2.19524 42.1264 2.30805C41.5983 2.52381 41.1017 2.7915 40.6357 3.12007C40.0161 3.55697 39.4808 4.09997 39.0321 4.73338C38.6778 5.2334 38.3793 5.76072 38.14 6.34445C37.8617 7.02307 37.7114 7.71021 37.669 8.43852C37.6614 8.57013 37.6031 8.69816 37.5926 8.83021C37.5695 9.10999 37.5338 9.39379 37.5557 9.67133C37.5884 10.0845 37.6287 10.5053 37.7349 10.9015C37.8587 11.3639 37.954 11.8334 38.1312 12.2874C38.3381 12.8178 38.5699 13.3308 38.8709 13.7946C39.4242 14.6482 40.1151 15.3564 40.9854 15.8578C41.5857 16.2033 42.1558 16.6094 42.7544 16.9585C43.1125 17.1671 43.5016 17.3139 43.8736 17.4961C44.2207 17.6662 44.565 17.8435 44.9079 18.0226C45.1665 18.1577 45.4184 18.3064 45.6778 18.4389C46.1316 18.6707 46.585 18.9035 47.0459 19.1193C47.4477 19.3073 47.862 19.4635 48.2646 19.6497C48.6781 19.8413 49.0824 20.0558 49.4933 20.2545C49.744 20.3754 50.003 20.4765 50.2519 20.6019C50.6667 20.8105 51.0676 21.0535 51.4903 21.242C52.073 21.5021 52.468 21.9824 52.8584 22.4753C53.057 22.7259 53.2161 22.9941 53.2337 23.3383C53.2396 23.4543 53.2895 23.568 53.316 23.683C53.3357 23.769 53.3748 23.8594 53.3643 23.9417C53.2379 24.9512 52.9235 25.8581 52.0457 26.3998C51.7283 26.5954 51.3975 26.8044 51.0017 26.7838C50.9601 26.7816 50.9152 26.7834 50.877 26.7986C49.9816 27.1549 49.05 26.9821 48.1341 27.0005C47.1555 27.0202 46.1761 26.9754 45.1972 26.9763C43.5885 26.9777 41.9803 26.9987 40.3716 27.0005C39.3083 27.0014 38.245 26.996 37.1825 26.9624C36.9268 26.9544 36.669 26.8389 36.4239 26.7395C36.3324 26.7024 36.2471 26.5837 36.2056 26.4808C35.9726 25.902 36.3181 25.2784 36.9066 25.2032C37.0171 25.1889 37.1304 25.1969 37.2421 25.1969C41.3699 25.1938 45.4973 25.1916 49.6252 25.1875C49.9047 25.1871 50.1885 25.1405 50.4635 25.1763C50.8182 25.2224 51.102 25.0304 51.3442 24.8491C51.5302 24.7099 51.7107 24.4409 51.7044 24.1347C51.6989 23.8638 51.7602 23.598 51.5168 23.358C51.2552 23.1006 51.0033 22.8692 50.6851 22.6758C50.1247 22.3347 49.5164 22.1176 48.9493 21.7998C48.5429 21.5719 48.0875 21.4457 47.663 21.2519C47.2747 21.0746 46.9003 20.862 46.5157 20.6744C46.0829 20.4631 45.6426 20.2688 45.211 20.0553C44.8147 19.8592 44.4252 19.6475 44.0335 19.4411C43.704 19.2675 43.3774 19.0875 43.0453 18.9192C42.6759 18.7321 42.2947 18.57 41.9324 18.3695C41.401 18.0754 40.8741 17.7701 40.3586 17.4451C39.464 16.8815 38.64 16.2203 37.9876 15.3461C37.63 14.8667 37.342 14.3398 37.0595 13.8035C36.8235 13.3554 36.6199 12.8863 36.4885 12.414C36.3697 11.9865 36.143 11.5729 36.1766 11.0908C36.1905 10.8934 36.1023 10.6884 36.0641 10.486C36.0398 10.3558 36.0062 10.2242 36.0033 10.0926C35.994 9.64537 35.9806 9.19683 36.0007 8.75053C36.0125 8.48866 36.0885 8.23036 36.13 7.96984C36.1535 7.82346 36.1728 7.67529 36.1817 7.52667C36.1989 7.246 36.2136 6.97965 36.3483 6.71151C36.481 6.4474 36.4839 6.12555 36.6002 5.83234C36.9167 5.03464 37.2929 4.27992 37.8096 3.61427C38.3302 2.94326 38.9225 2.34386 39.5858 1.83578C40.0547 1.47633 40.5471 1.15089 41.0924 0.927966C41.3871 0.80755 41.6659 0.641026 41.9622 0.527325C42.2343 0.423024 42.5176 0.338867 42.8022 0.286941C43.3769 0.182192 43.9554 0.0322305 44.5335 0.0282017C48.731 0.000895504 52.9285 0.00492407 57.126 0C57.2377 0 57.3506 0.000447971 57.4615 0.0143249C57.697 0.0434217 57.8981 0.237253 57.9337 0.491962C57.9648 0.712202 57.9812 0.937367 57.9816 1.16029C57.9854 3.39851 57.9845 5.63627 57.9837 7.87449C57.9837 8.00833 57.9791 8.14397 57.961 8.27603C57.9144 8.61042 57.736 8.8038 57.4157 8.84498C57.2083 8.87184 56.9968 8.87184 56.7873 8.87184C53.1355 8.87139 49.4833 8.86871 45.8315 8.86736C45.4419 8.86736 45.0649 8.88706 44.6791 9.02091C44.3076 9.14983 44.1683 9.44258 44.0956 9.75548C44.0318 10.029 44.1972 10.3213 44.4143 10.4784C44.7178 10.6982 45.062 10.8562 45.3936 11.0299C45.6014 11.1387 45.8176 11.2287 46.0309 11.3254C46.3566 11.4735 46.6849 11.6168 47.009 11.769C47.1584 11.8393 47.2974 11.9346 47.4477 12.0027C48.1513 12.3214 48.8607 12.6262 49.5618 12.9521C50.1868 13.2431 50.8018 13.5587 51.4244 13.8563C51.9332 14.0994 52.4428 14.3411 52.9592 14.5654C53.4021 14.7579 53.8739 14.885 54.2987 15.1129C55.1937 15.5928 56.0959 16.0758 56.8204 16.8377C57.3292 17.3726 57.8317 17.9174 58.3002 18.4917C58.5303 18.7733 58.6835 19.1278 58.8598 19.4564C59.0433 19.7979 59.241 20.1359 59.3812 20.498C59.5311 20.8857 59.6541 21.2859 59.7657 21.6932C60.1037 22.9256 59.9886 24.1682 59.9429 25.4118C59.9336 25.6562 59.8484 25.897 59.7993 26.1401C59.7787 26.2417 59.7493 26.3433 59.7451 26.4463C59.7359 26.6719 59.6931 26.8702 59.5789 27.0766C59.4425 27.3232 59.3959 27.6245 59.2981 27.8976C59.0865 28.4871 58.767 29.0077 58.4287 29.5247C58.0336 30.1291 57.592 30.6801 57.0551 31.1367C56.6609 31.4715 56.2407 31.7724 55.8243 32.0763C55.5434 32.2809 55.2567 32.4801 54.9578 32.6529C54.7055 32.7988 54.4339 32.9062 54.1682 33.0244C53.8777 33.1538 53.5851 33.2764 53.2925 33.4004C53.2165 33.4327 53.1388 33.4604 53.0599 33.4828C53.0205 33.494 52.9697 33.4748 52.9357 33.4931C52.4584 33.7523 51.9072 33.6838 51.4152 33.8857C51.264 33.9475 51.0869 33.9537 50.9211 33.9569C49.9278 33.9752 48.9346 33.9945 47.9414 33.9958C44.3593 34.0007 40.7776 33.9985 37.1955 33.9985C37.0414 33.9985 36.8869 34.003 36.7341 33.9878C36.3941 33.9546 36.2094 33.7684 36.1607 33.4076C36.1141 33.0616 36.0985 32.7173 36.4285 32.4998C36.5288 32.4335 36.6447 32.3695 36.7589 32.357C36.9667 32.3337 37.1778 32.3485 37.3877 32.3485C41.4593 32.3471 45.5309 32.3458 49.6021 32.3436C49.8678 32.3436 50.1335 32.335 50.3993 32.327C50.4971 32.3239 50.6087 32.34 50.6893 32.2961C51.0382 32.105 51.4269 32.1529 51.7858 32.0611C52.136 31.9716 52.5213 31.9393 52.8286 31.6909C52.8504 31.6734 52.8756 31.6555 52.9012 31.6493C53.7345 31.4451 54.4356 30.9706 55.1467 30.484C55.9414 29.9402 56.5707 29.2347 57.1479 28.4665C57.427 28.0954 57.655 27.6755 57.7876 27.2073C57.8338 27.0448 57.9438 26.9029 57.9904 26.74C58.1306 26.2484 58.2536 25.7516 58.3825 25.2569C58.3938 25.2139 58.406 25.1692 58.406 25.1253C58.4073 24.3352 58.5034 23.5268 58.3754 22.7609C58.2733 22.1503 58.0928 21.5307 57.8355 20.9349C57.383 19.887 56.7226 19.0427 55.9573 18.2661C55.5229 17.8251 55.0384 17.4581 54.4998 17.1698C54.1249 16.9693 53.7736 16.7168 53.3924 16.5328C52.9684 16.3282 52.5192 16.1845 52.0881 15.9961C51.6586 15.8085 51.2393 15.5954 50.8136 15.398C50.3648 15.1903 49.9123 14.992 49.4644 14.7825C49.0416 14.5851 48.6227 14.3783 48.2012 14.1769C48.0001 14.0811 47.7995 13.9839 47.5959 13.8948C47.0019 13.6343 46.3885 13.4154 45.8159 13.1097C45.0691 12.7108 44.2564 12.457 43.5671 11.9333C43.1649 11.628 42.8841 11.239 42.691 10.7506C42.5646 10.4319 42.4509 10.1297 42.4849 9.77697C42.5735 8.85438 42.8971 8.08443 43.704 7.62963C44.1834 7.3597 44.6808 7.18781 45.24 7.1896C48.752 7.19989 52.264 7.19318 55.776 7.19005C55.9687 7.1887 56.1605 7.17079 56.4145 7.15781Z" fill="#005292"/>
<path d="M78.0335 1.54016H79.5675L87.2375 20.0002H85.3135L82.9215 14.2282H74.6275L72.2615 20.0002H70.3115L78.0335 1.54016ZM82.5055 12.7982L78.7875 3.67216L75.0175 12.7982H82.5055Z" fill="white"/>
<path d="M89.8838 20.0002V1.54016H96.1498C98.1085 1.54016 99.7378 1.95616 101.038 2.78816C102.355 3.60282 103.343 4.71216 104.002 6.11616C104.66 7.50282 104.99 9.04549 104.99 10.7442C104.99 12.6162 104.626 14.2455 103.898 15.6322C103.187 17.0188 102.165 18.0935 100.83 18.8562C99.5125 19.6188 97.9525 20.0002 96.1498 20.0002H89.8838ZM103.17 10.7442C103.17 9.27082 102.893 7.96216 102.338 6.81816C101.801 5.67416 101.012 4.78149 99.9718 4.14016C98.9318 3.48149 97.6578 3.15216 96.1498 3.15216H91.7038V18.3882H96.1498C97.6752 18.3882 98.9578 18.0502 99.9978 17.3742C101.038 16.6982 101.827 15.7882 102.364 14.6442C102.901 13.4828 103.17 12.1828 103.17 10.7442Z" fill="white"/>
<path d="M125.887 4.99816C125.627 4.70349 125.323 4.44349 124.977 4.21816C124.63 3.97549 124.24 3.76749 123.807 3.59416C123.373 3.42082 122.905 3.28216 122.403 3.17816C121.917 3.07416 121.397 3.02216 120.843 3.02216C119.231 3.02216 118.043 3.33416 117.281 3.95816C116.535 4.56482 116.163 5.39682 116.163 6.45416C116.163 7.18216 116.336 7.75416 116.683 8.17016C117.047 8.58616 117.61 8.92416 118.373 9.18416C119.135 9.44416 120.106 9.71282 121.285 9.99016C122.602 10.2675 123.737 10.5968 124.691 10.9782C125.644 11.3595 126.381 11.8795 126.901 12.5382C127.421 13.1795 127.681 14.0548 127.681 15.1642C127.681 16.0135 127.516 16.7502 127.187 17.3742C126.857 17.9982 126.398 18.5182 125.809 18.9342C125.219 19.3502 124.517 19.6622 123.703 19.8702C122.888 20.0608 121.995 20.1562 121.025 20.1562C120.071 20.1562 119.153 20.0608 118.269 19.8702C117.402 19.6622 116.579 19.3675 115.799 18.9862C115.019 18.5875 114.291 18.0848 113.615 17.4782L114.525 15.9962C114.854 16.3428 115.244 16.6722 115.695 16.9842C116.163 17.2788 116.674 17.5475 117.229 17.7902C117.801 18.0328 118.407 18.2235 119.049 18.3622C119.707 18.4835 120.383 18.5442 121.077 18.5442C122.55 18.5442 123.694 18.2755 124.509 17.7382C125.341 17.2008 125.757 16.4035 125.757 15.3462C125.757 14.5835 125.549 13.9768 125.133 13.5262C124.717 13.0582 124.093 12.6768 123.261 12.3822C122.429 12.0875 121.406 11.8015 120.193 11.5242C118.91 11.2295 117.827 10.9002 116.943 10.5362C116.059 10.1722 115.391 9.69549 114.941 9.10616C114.507 8.49949 114.291 7.70216 114.291 6.71416C114.291 5.57016 114.568 4.60816 115.123 3.82816C115.695 3.03082 116.475 2.43282 117.463 2.03416C118.451 1.61816 119.586 1.41016 120.869 1.41016C121.683 1.41016 122.437 1.49682 123.131 1.67016C123.841 1.82616 124.491 2.06016 125.081 2.37216C125.687 2.68416 126.251 3.07416 126.771 3.54216L125.887 4.99816Z" fill="white"/>
<path d="M130.89 20.0002V1.54016H138.534C139.331 1.54016 140.059 1.70482 140.718 2.03416C141.394 2.36349 141.974 2.81416 142.46 3.38616C142.945 3.94082 143.326 4.56482 143.604 5.25816C143.881 5.93416 144.02 6.62749 144.02 7.33816C144.02 8.34349 143.794 9.29682 143.344 10.1982C142.91 11.0822 142.295 11.8015 141.498 12.3562C140.7 12.9108 139.764 13.1882 138.69 13.1882H132.71V20.0002H130.89ZM132.71 11.5762H138.612C139.34 11.5762 139.972 11.3768 140.51 10.9782C141.047 10.5795 141.463 10.0595 141.758 9.41816C142.052 8.77682 142.2 8.08349 142.2 7.33816C142.2 6.57549 142.026 5.87349 141.68 5.23216C141.333 4.59082 140.874 4.08816 140.302 3.72416C139.747 3.34282 139.132 3.15216 138.456 3.15216H132.71V11.5762Z" fill="white"/>
<path d="M151.514 1.54016H153.048L160.718 20.0002H158.794L156.402 14.2282H148.108L145.742 20.0002H143.792L151.514 1.54016ZM155.986 12.7982L152.268 3.67216L148.498 12.7982H155.986Z" fill="white"/>
<path d="M161.457 10.6402C161.457 9.51349 161.647 8.41282 162.029 7.33816C162.427 6.24616 162.999 5.25816 163.745 4.37416C164.49 3.47282 165.409 2.76216 166.501 2.24216C167.593 1.70482 168.832 1.43616 170.219 1.43616C171.865 1.43616 173.269 1.81749 174.431 2.58016C175.609 3.32549 176.476 4.28749 177.031 5.46616L175.601 6.35016C175.202 5.53549 174.699 4.89416 174.093 4.42616C173.486 3.94082 172.836 3.59416 172.143 3.38616C171.467 3.17816 170.791 3.07416 170.115 3.07416C169.005 3.07416 168.026 3.29949 167.177 3.75016C166.327 4.18349 165.608 4.77282 165.019 5.51816C164.447 6.24616 164.013 7.06949 163.719 7.98816C163.424 8.88949 163.277 9.80816 163.277 10.7442C163.277 11.7668 163.45 12.7462 163.797 13.6822C164.143 14.6182 164.629 15.4502 165.253 16.1782C165.877 16.8888 166.605 17.4608 167.437 17.8942C168.286 18.3102 169.205 18.5182 170.193 18.5182C170.886 18.5182 171.597 18.3968 172.325 18.1542C173.053 17.9115 173.729 17.5388 174.353 17.0362C174.994 16.5335 175.505 15.8835 175.887 15.0862L177.395 15.8662C177.013 16.7848 176.424 17.5648 175.627 18.2062C174.829 18.8475 173.937 19.3328 172.949 19.6622C171.978 19.9915 171.025 20.1562 170.089 20.1562C168.823 20.1562 167.662 19.8875 166.605 19.3502C165.547 18.7955 164.629 18.0675 163.849 17.1662C163.086 16.2475 162.497 15.2248 162.081 14.0982C161.665 12.9542 161.457 11.8015 161.457 10.6402Z" fill="white"/>
<path d="M192.905 18.3882V20.0002H180.503V1.54016H192.671V3.15216H182.323V9.80816H191.345V11.3422H182.323V18.3882H192.905Z" fill="white"/>
<path d="M71.1714 34.0002V25.4338H72.1675V33.1095H75.9702V34.0002H71.1714Z" fill="white"/>
<path d="M82.814 34.0002L81.7593 31.2814H78.3257L77.2769 34.0002H76.2691L79.6206 25.3986H80.5171L83.8452 34.0002H82.814ZM81.4605 30.3966L80.4585 27.6955C80.4351 27.6252 80.396 27.5099 80.3413 27.3498C80.2905 27.1896 80.2378 27.0236 80.1831 26.8517C80.1284 26.6798 80.0835 26.5412 80.0484 26.4357C80.0093 26.5959 79.9663 26.756 79.9194 26.9162C79.8765 27.0724 79.8335 27.2189 79.7905 27.3556C79.7476 27.4884 79.7105 27.6017 79.6792 27.6955L78.6597 30.3966H81.4605Z" fill="white"/>
<path d="M85.0347 25.4338H87.4605C88.5308 25.4338 89.3355 25.5939 89.8745 25.9142C90.4136 26.2345 90.6831 26.7795 90.6831 27.549C90.6831 27.881 90.6187 28.1798 90.4898 28.4455C90.3648 28.7072 90.1812 28.924 89.939 29.0959C89.6968 29.2677 89.398 29.3869 89.0425 29.4533V29.5119C89.4175 29.5705 89.7495 29.6779 90.0386 29.8341C90.3276 29.9904 90.5542 30.2091 90.7183 30.4904C90.8823 30.7716 90.9644 31.1291 90.9644 31.5627C90.9644 32.09 90.8413 32.5353 90.5952 32.8986C90.353 33.2619 90.0093 33.5373 89.564 33.7248C89.1187 33.9084 88.5913 34.0002 87.9819 34.0002H85.0347V25.4338ZM86.0308 29.1076H87.6714C88.4175 29.1076 88.9331 28.9845 89.2183 28.7384C89.5073 28.4923 89.6519 28.133 89.6519 27.6603C89.6519 27.172 89.48 26.8205 89.1362 26.6056C88.7964 26.3908 88.2534 26.2834 87.5073 26.2834H86.0308V29.1076ZM86.0308 29.9455V33.1505H87.812C88.5737 33.1505 89.1128 33.0021 89.4292 32.7052C89.7456 32.4045 89.9038 32.0002 89.9038 31.4923C89.9038 31.1681 89.8316 30.8908 89.687 30.6603C89.5464 30.4298 89.3159 30.2541 88.9956 30.133C88.6792 30.008 88.2554 29.9455 87.7241 29.9455H86.0308Z" fill="white"/>
<path d="M97.562 34.0002H92.7925V25.4338H97.562V26.3127H93.7886V29.0841H97.3452V29.9513H93.7886V33.1213H97.562V34.0002Z" fill="white"/>
<path d="M99.4605 34.0002V25.4338H100.457V33.1095H104.259V34.0002H99.4605Z" fill="white"/>
</svg>
