<svg width="34" height="21" viewBox="0 0 34 21" fill="none" xmlns="http://www.w3.org/2000/svg">
<path d="M32.1114 8.31192H5.82842L11.2014 2.82191C11.4988 2.50715 11.663 2.0859 11.6586 1.6489C11.6543 1.21189 11.4818 0.794101 11.1783 0.485513C10.8748 0.176925 10.4646 0.00223404 10.0359 -0.000932748C9.60733 -0.00409954 9.19465 0.164511 8.88678 0.468582L0.730053 8.80191C0.425107 9.11426 0.253906 9.53703 0.253906 9.97775C0.253906 10.4185 0.425107 10.8412 0.730053 11.1536L8.88842 19.5302C9.19405 19.8439 9.60936 20.0208 10.043 20.0223C10.4766 20.0237 10.893 19.8494 11.2006 19.5377C11.5082 19.2261 11.6817 18.8027 11.6831 18.3606C11.6845 17.9184 11.5136 17.4939 11.2079 17.1802L5.81371 11.6452H32.1114C32.5449 11.6452 32.9607 11.4697 33.2672 11.1571C33.5738 10.8445 33.746 10.4206 33.746 9.97858C33.746 9.53655 33.5738 9.11263 33.2672 8.80007C32.9607 8.48751 32.5449 8.31192 32.1114 8.31192V8.31192Z" fill="#607D8B"/>
</svg>
