<svg width="34" height="21" viewBox="0 0 34 21" fill="none" xmlns="http://www.w3.org/2000/svg">
<path d="M28.5289 7.96219L29.3605 8.81192H28.1716H1.8886C1.59085 8.81192 1.30329 8.93242 1.08973 9.15017C0.875839 9.36825 0.753986 9.66606 0.753986 9.97858C0.753986 10.2911 0.875839 10.5889 1.08973 10.807C1.30329 11.0247 1.59085 11.1452 1.8886 11.1452H28.1863H29.3718L28.5444 11.9942L23.1501 17.5292C22.9369 17.7481 22.8159 18.0464 22.8169 18.359C22.8178 18.6716 22.9407 18.9691 23.1553 19.1865C23.3696 19.4036 23.6576 19.5232 23.9554 19.5223C24.2532 19.5213 24.5405 19.3998 24.7535 19.1813L32.9118 10.8047L32.9122 10.8043C33.125 10.5863 33.2461 10.2893 33.2461 9.97775C33.2461 9.66632 33.1251 9.36946 32.9125 9.15155C32.9124 9.15144 32.9123 9.15132 32.9122 9.15121L24.7591 0.821614C24.545 0.611593 24.2609 0.496888 23.9677 0.499054C23.6734 0.501229 23.3896 0.621143 23.1782 0.836121C22.9664 1.05141 22.8444 1.34489 22.8413 1.65384C22.8383 1.96144 22.9535 2.25622 23.1593 2.47565L28.5289 7.96219Z" fill="#607D8B" stroke="#607D8B"/>
</svg>
